<svg id="logo-svg" width="240" height="80" viewBox="0 0 240 80" fill="none" xmlns="http://www.w3.org/2000/svg" class="" data-fg-d3bl0="0.8:1.4254:/src/app/App.tsx:20:5:635:1557:e:svg:xtetetetxtxtetxtetxtetxtetxtetxtetete:1"><path d="M30 20L45 28V44L30 52L15 44V28L30 20Z" fill="white" data-fg-d3bl2="0.8:1.4254:/src/app/App.tsx:30:7:880:62:e:path"/><path d="M45 44L60 52V68L45 76V60V44Z" fill="white" opacity="0.6" data-fg-d3bl3="0.8:1.4254:/src/app/App.tsx:31:7:949:67:e:path"/><path d="M15 44V60L30 68L45 60V44L30 52L15 44Z" fill="white" opacity="0.8" data-fg-d3bl4="0.8:1.4254:/src/app/App.tsx:32:7:1023:76:e:path"/><path d="M85 32H90V56H85V41L95 56H100V32H95V47L85 32Z" fill="white" data-fg-d3bl7="0.8:1.4254:/src/app/App.tsx:36:7:1168:69:e:path"/><path d="M110 32H130V37H115V41H128V46H115V51H130V56H110V32Z" fill="white" data-fg-d3bl9="0.8:1.4254:/src/app/App.tsx:39:7:1267:75:e:path"/><path d="M140 32H146L152 42L158 32H164L155 44L165 56H159L152 45L145 56H139L149 44L140 32Z" fill="white" data-fg-d3bl11="0.8:1.4254:/src/app/App.tsx:42:7:1372:105:e:path"/><path d="M175 32H180V48C180 50 179 51 176 51C173 51 172 50 172 48V32H167V48C167 54 170 57 176 57C182 57 185 54 185 48V32H180Z" fill="white" data-fg-d3bl13="0.8:1.4254:/src/app/App.tsx:45:7:1507:141:e:path"/><path d="M195 32H215V37H200V41H213V51C213 54 211 57 206 57H204C199 57 197 54 197 51V49H202V51C202 52 203 52 205 52C207 52 208 52 208 51V46H195V32Z" fill="white" data-fg-d3bl15="0.8:1.4254:/src/app/App.tsx:48:7:1678:162:e:path"/><path d="M86 64H88V66H86V64Z M90 62H102V63H90V62Z M90 65H100V66H90V65Z" fill="white" opacity="0.7" data-fg-d3bl17="0.8:1.4254:/src/app/App.tsx:51:7:1876:100:e:path"/><path d="M105 62H115V63H105V62Z M105 64H113V65H105V64Z M105 66H115V67H105V66Z" fill="white" opacity="0.7" data-fg-d3bl18="0.8:1.4254:/src/app/App.tsx:52:7:1983:107:e:path"/><path d="M118 62H128V63H118V62Z M118 65H126V66H118V65Z" fill="white" opacity="0.7" data-fg-d3bl19="0.8:1.4254:/src/app/App.tsx:53:7:2097:84:e:path"/></svg>