<svg id="logo-svg" width="260" height="80" viewBox="0 0 260 80" fill="none" xmlns="http://www.w3.org/2000/svg" class="" data-fg-d3bl0="0.8:1.5526:/src/app/App.tsx:20:5:635:2023:e:svg:xtetetetetetxtxtetxtetxtetxtetxtetxtetxtetxtetxtetetete:1"><circle cx="35" cy="40" r="8" fill="white" data-fg-d3bl2="0.8:1.5526:/src/app/App.tsx:30:7:881:44:e:circle"/><circle cx="35" cy="40" r="16" stroke="white" stroke-width="2.5" fill="none" data-fg-d3bl3="0.8:1.5526:/src/app/App.tsx:31:7:932:77:e:circle"/><circle cx="35" cy="40" r="24" stroke="white" stroke-width="2" fill="none" opacity="0.6" data-fg-d3bl4="0.8:1.5526:/src/app/App.tsx:32:7:1016:89:e:circle"/><path d="M52 25L58 28L52 31" stroke="white" stroke-width="2.5" stroke-linecap="round" stroke-linejoin="round" data-fg-d3bl5="0.8:1.5526:/src/app/App.tsx:33:7:1112:108:e:path"/><path d="M18 49L12 52L18 55" stroke="white" stroke-width="2.5" stroke-linecap="round" stroke-linejoin="round" data-fg-d3bl6="0.8:1.5526:/src/app/App.tsx:34:7:1227:108:e:path"/><path d="M75 32L82 56H87L94 32H89L84.5 50L80 32H75Z" fill="white" data-fg-d3bl9="0.8:1.5526:/src/app/App.tsx:38:7:1402:67:e:path"/><path d="M100 32H120V37H105V41H118V46H105V51H120V56H100V32Z" fill="white" data-fg-d3bl11="0.8:1.5526:/src/app/App.tsx:41:7:1499:75:e:path"/><path d="M127 32H132V51H145V56H127V32Z" fill="white" data-fg-d3bl13="0.8:1.5526:/src/app/App.tsx:44:7:1604:54:e:path"/><path d="M152 32H162C167 32 170 35 170 40V48C170 53 167 56 162 56H152V32ZM157 37V51H162C164 51 165 50 165 48V40C165 38 164 37 162 37H157Z" fill="white" data-fg-d3bl15="0.8:1.5526:/src/app/App.tsx:47:7:1688:153:e:path"/><path d="M177 32H192V37H182V51H192V56H177V32Z" fill="white" data-fg-d3bl17="0.8:1.5526:/src/app/App.tsx:50:7:1871:61:e:path"/><path d="M199 32H204V56H199V32Z" fill="white" data-fg-d3bl19="0.8:1.5526:/src/app/App.tsx:53:7:1962:47:e:path"/><path d="M211 32H235V37H225V56H220V37H211V32Z" fill="white" data-fg-d3bl21="0.8:1.5526:/src/app/App.tsx:56:7:2039:61:e:path"/><path d="M242 32H247L252 42L257 32H262L254 46V56H250V46L242 32Z" fill="white" data-fg-d3bl23="0.8:1.5526:/src/app/App.tsx:59:7:2130:79:e:path"/><path d="M77 64H79V68H82V69H77V64Z" fill="white" opacity="0.7" data-fg-d3bl25="0.8:1.5526:/src/app/App.tsx:62:7:2252:64:e:path"/><path d="M84 64H87L88 66L89 64H92L90 68L92 72H89L88 70L87 72H84L86 68L84 64Z" fill="white" opacity="0.7" data-fg-d3bl26="0.8:1.5526:/src/app/App.tsx:63:7:2323:106:e:path"/><path d="M94 64H99C100 64 101 65 101 66C101 67 100 68 99 68H96V72H94V64ZM96 66V67H99V66H96Z" fill="white" opacity="0.7" data-fg-d3bl27="0.8:1.5526:/src/app/App.tsx:64:7:2436:121:e:path"/><path d="M103 64H108V72H103V64ZM105 66V70H106V66H105Z" fill="white" opacity="0.7" data-fg-d3bl28="0.8:1.5526:/src/app/App.tsx:65:7:2564:83:e:path"/></svg>